<?xml version="1.0" encoding="utf-8"?>
<!-- Generator: Adobe Illustrator 23.0.2, SVG Export Plug-In . SVG Version: 6.00 Build 0)  -->
<svg version="1.1" id="Layer_1" xmlns="http://www.w3.org/2000/svg" xmlns:xlink="http://www.w3.org/1999/xlink" x="0px" y="0px"
	 viewBox="0 0 369.48 100.88" enable-background="new 0 0 369.48 100.88" xml:space="preserve">
<g>
	<path fill="#FFFFFF" d="M119.86,11.43C127.04,9,127.59,0,120.51,0c-1.95,0-4.28,1.37-5.88,4.17l-9.58,16.56
		c-0.44,0.79-0.89,1.44-1.37,2.02c-2.46-3.39-1.74-8.45,1.71-10.67l-1.44-1.81c-7.46,4.75-5.27,18.48,7.18,18.48
		C121.78,28.74,126.7,15.98,119.86,11.43z M111.07,26c-2.12,0-3.8-0.48-5.13-1.23c0.61-0.72,1.23-1.61,1.78-2.53l5.99-10.37
		l0.96,0.1C123.01,13.72,119.69,26,111.07,26z M114.9,9.79l2.87-4.93c2.6-4.48,5.92-1.85,4.14,1.5
		C120.54,8.93,118.52,9.72,114.9,9.79z"/>
	<path fill="#FFFFFF" d="M259.21,18.95l-0.24,0.27c-1.99,2.33-4.35,4.24-6.5,5c0.58-0.92,1.03-1.92,1.47-2.67l3.93-6.74
		c3.32-5.64-2.05-7.53-5.68-4.28l0.72-1.23h-3.56l-5.56,9.65c0,0-0.01,0-0.01-0.01l-0.24,0.27c-1.61,1.75-3.59,2.6-5.37,2.63
		l3.35-5.78c2.16-3.73,0.17-7.25-3.18-7.25c-2.74,0-4.86,1.09-6.91,4.65l-1.75,3.04l-1.45,2.49l-0.19,0.22
		c-2.57,2.98-5.06,5.34-6.64,5.34c-0.79,0-1.23-0.55-0.41-1.95l5.13-9c1.54-2.7,0.07-4.65-1.92-4.65c-1.54,0-3.18,0.86-4.96,2.7
		l5.68-9.89h-3.56L211.45,19l-0.2,0.23c-1.3,1.54-2.87,2.91-4.28,3.87c1.13-3.39,0.89-8.59,3.08-13.14l-2.67-1.44
		c-1.47,2.02-4.69,6.67-7.9,10.44l0,0l0,0l-0.24,0.27c-2.57,2.98-5.06,5.34-6.64,5.34c-0.79,0-1.23-0.55-0.41-1.95l3.56-6.23
		c1.23-2.16,0.65-3.42-0.51-4.82l-1.98-2.39c-0.51-0.65-0.51-1.37,0.2-2.05l-1.85-2.02c-2.02,1.81-2.19,3.83-0.92,5.47l0.31,0.41
		c-1.57,2.22-3.69,5.23-6.02,7.97l-0.24,0.27c-2.57,2.98-5.85,5.34-8.35,5.34c-2.19,0-3.49-1.37-1.85-4.24l0.34-0.62
		c2.29,0.96,6.6,0.51,9.27-4.11l0.51-0.89c1.92-3.28,0.07-5.75-2.84-5.75c-2.87,0-5.16,1.51-6.67,4.11l-3.45,5.91l-0.21,0.24
		c-1.61,1.78-3.63,2.6-5.37,2.63l3.35-5.78c0.89-1.57,1.33-2.94,1.33-4.07c0-1.81-1.23-3.18-3.22-3.18c-0.85,0-1.61,0.31-2.33,0.79
		l4.52-7.83h-3.63l-9.97,17.23l-0.19,0.21c-2.57,2.98-5.06,5.34-6.64,5.34c-0.79,0-1.23-0.55-0.41-1.95l3.56-6.23
		c1.23-2.16,0.65-3.42-0.51-4.82L150,9.17c-0.51-0.65-0.51-1.37,0.21-2.05l-1.85-2.02c-2.02,1.81-2.19,3.83-0.92,5.47l0.31,0.41
		c-1.57,2.22-3.7,5.23-6.02,7.97l-0.24,0.27c-2.57,2.98-5.06,5.34-6.64,5.34c-0.79,0-1.23-0.55-0.41-1.95l5.75-10.06h-2.02
		c0.14-1.51-1.4-3.59-3.73-3.59c-1.92,0-4.58,1.51-6.09,4.11l-4.99,8.62c-1.51,2.64-0.44,5.06,2.43,5.06c1.44,0,3.22-0.92,4.93-2.33
		c0.17,1.37,1.27,2.33,3.08,2.33c2.94,0,6.33-3.15,9.27-6.57l0,0c1.71-1.98,3.04-3.76,5.88-7.63l0.48,0.58
		c0.44,0.58,0.62,1.3,0.21,2.02l-3.76,6.53c-1.5,2.64-0.44,5.06,2.43,5.06c2.06,0,4.34-1.55,6.54-3.65c0,0.01,0,0.02,0,0.02
		c0,2.43,1.81,3.8,4.11,3.8c1.98,0,4.28-1.03,6.06-3.32c0.27,0.03,0.51,0.03,0.79,0.03c1.32,0,3.12-0.5,4.72-1.4
		c-0.19,2.57,1.68,4.52,4.82,4.52c4.04,0,8.04-3.15,10.98-6.57c1.71-1.98,3.04-3.76,5.88-7.63l0.48,0.58
		c0.44,0.58,0.62,1.3,0.21,2.02l-3.76,6.53c-1.51,2.64-0.44,5.06,2.43,5.06c2.94,0,6.33-3.15,9.27-6.57h0h0
		c2.02-2.33,3.8-4.82,5.06-6.5c-1.4,3.7-0.65,10.33-4.04,10.33c-1.2,0-1.68-1.3-1.68-1.3l-2.22,1.16c0,0,0.65,2.87,3.9,2.87
		c0.34,0,0.65-0.03,0.99-0.07c0.04,0,0.07-0.03,0.1-0.03c1.87-0.25,3.73-1.14,5.47-2.36l-1.22,2.12h3.59l5.4-9.41
		c5.48-6.88,7.9-5.99,6.36-3.35l-4.62,8.04c-1.51,2.63-0.44,5.06,2.43,5.06c2.07,0,4.35-1.56,6.55-3.67
		c-0.01,4.54,6.29,5.42,10.15,0.55h0.79c1.07,0,2.46-0.33,3.81-0.94l-6.48,11.24h3.59l10.64-18.51c3.97-5.41,6.47-3.42,5.54-1.81
		l-5.37,9.31c-0.58,1.03-1.92,1.33-2.57,0l-2.02,0.96c0,0,0.65,2.87,3.9,2.87h0.21c5.17-0.1,8.55-3.18,11.46-6.57
		C260.34,19.64,259.72,19.09,259.21,18.95z M178.19,13.96c2.05-3.52,5.68-2.94,3.56,0.75l-0.51,0.89c-1.71,2.91-4,2.84-5.34,2.36
		L178.19,13.96z M132.59,19.57c-2.16,3.39-4.28,5-5.75,5c-0.79,0-1.23-0.55-0.41-1.95l4.96-8.66c1.92-3.32,5.71-2.46,3.97,0.75
		L132.59,19.57z M159.38,24.43c-0.79,0-1.44-0.48-1.44-1.37c0-0.51,0.21-1.09,0.62-1.85l1.27-2.19c0.27,1.54,0.96,2.87,2.26,3.69
		C161.36,23.88,160.27,24.43,159.38,24.43z M163.1,20.97c-0.92-0.68-1.51-1.78-1.51-3.22c0-2.53,2.46-6.67,4.48-6.67
		c0.79,0,1.34,0.58,1.34,1.54c0,0.58-0.21,1.3-0.68,2.12L163.1,20.97z M236.18,19.19h-0.17c-1.16,0-2.09,0.96-2.09,2.12
		c0,0.44,0.14,0.85,0.34,1.2l-0.03,0.07c-1.68,2.87-5.75,2.33-3.63-1.37l2.7-4.69l1.71-2.91c2.5-4.24,5.92-2.57,3.76,1.13
		L236.18,19.19z"/>
</g>
<rect x="1.68" y="69.23" transform="matrix(0.7072 -0.707 0.707 0.7072 -50.13 25.4969)" fill="#FFFFFF" width="8.08" height="8.08"/>
<rect x="353.67" y="69.22" transform="matrix(0.7072 -0.707 0.707 0.7072 52.9333 274.3416)" fill="#FFFFFF" width="8.08" height="8.08"/>
<g>
	<polygon fill="#636466" points="46.8,73.48 48.88,73.48 48.88,65.16 52.16,65.16 52.16,63.07 46.8,63.07 	"/>
	<path fill="#636466" d="M61.69,75.01V62.32c0-1.79-1.07-3.33-2.56-4.07c0.3,0.6,0.48,1.27,0.48,1.99v12.69
		c0,1.42-0.62,2.65-1.66,3.51c0.92,0.99,1.66,2.09,1.66,3.69v14.1c0,2.46-2.09,4.56-4.56,4.56H41.49v2.08h15.64
		c2.46,0,4.56-2.09,4.56-4.56V82.21c0-1.6-0.74-2.71-1.66-3.7C61.08,77.66,61.69,76.42,61.69,75.01z"/>
	<polygon fill="#636466" points="46.8,91.34 48.88,91.34 48.88,82.96 52.16,82.96 52.16,80.87 46.8,80.87 	"/>
</g>
<g>
	<polygon fill="#636466" points="79.81,91.34 81.89,91.34 81.89,65.16 85.17,65.16 85.17,63.07 79.81,63.07 	"/>
	<path fill="#636466" d="M92.14,58.25c0.3,0.6,0.48,1.27,0.48,1.99v33.99c0,2.46-2.09,4.56-4.56,4.56H76.98
		c-0.72,0-1.39-0.18-1.99-0.48c0.74,1.5,2.27,2.56,4.07,2.56h11.08c2.46,0,4.56-2.09,4.56-4.56V62.32
		C94.7,60.53,93.63,59,92.14,58.25z"/>
</g>
<g>
	<polygon fill="#636466" points="112.82,73.48 114.9,73.48 114.9,65.16 118.18,65.16 118.18,63.07 112.82,63.07 	"/>
	<path fill="#636466" d="M125.07,82.52c1.6-0.74,2.59-2.34,2.59-4.06V62.32c0-1.82-1.06-3.36-2.57-4.1c0.3,0.61,0.48,1.29,0.48,2.01
		v16.13c0,1.72-0.99,3.33-2.59,4.06l3.08,18.35h-5.66l0.35,2.08h7.39L125.07,82.52z"/>
	<polygon fill="#636466" points="115.65,80.87 112.82,80.87 112.82,98.79 107.51,98.79 107.51,100.88 114.9,100.88 114.9,82.96 
		116,82.96 	"/>
</g>
<g>
	<polygon fill="#636466" points="144.85,91.34 146.93,91.34 146.93,65.16 150.21,65.16 150.21,63.07 144.85,63.07 	"/>
	<path fill="#636466" d="M157.18,58.25c0.3,0.6,0.48,1.27,0.48,1.99v33.99c0,2.46-2.09,4.56-4.56,4.56h-11.09
		c-0.72,0-1.38-0.18-1.99-0.48c0.74,1.5,2.27,2.56,4.07,2.56h11.09c2.46,0,4.56-2.09,4.56-4.56V62.32
		C159.74,60.53,158.67,59,157.18,58.25z"/>
</g>
<g>
	<polygon fill="#636466" points="177.86,91.34 179.94,91.34 179.94,65.16 183.22,65.16 183.22,63.07 177.86,63.07 	"/>
	<path fill="#636466" d="M190.19,58.25c0.3,0.6,0.48,1.27,0.48,1.99v33.99c0,2.46-2.09,4.56-4.56,4.56h-13.56v2.08h15.64
		c2.46,0,4.56-2.09,4.56-4.56V62.32C192.75,60.53,191.68,59,190.19,58.25z"/>
</g>
<polygon fill="#636466" points="211.24,57.77 211.24,98.79 205.93,98.79 205.93,100.88 213.32,100.88 213.32,57.77 "/>
<g>
	<polygon fill="#636466" points="244.13,57.77 244.13,98.79 238.22,98.79 238.82,100.88 246.21,100.88 246.21,57.77 	"/>
	<polygon fill="#636466" points="231.32,79.95 231.32,98.79 226.01,98.79 226.01,100.88 233.4,100.88 233.4,87.19 	"/>
</g>
<g>
	<path fill="#636466" d="M263.58,82.96h6.11v-2.08h-8.19c-0.72,0-1.39-0.18-2-0.48C260.24,81.91,261.77,82.96,263.58,82.96z"/>
	<polygon fill="#636466" points="266.41,85.72 264.33,86.21 264.33,91.34 266.41,91.34 	"/>
	<path fill="#636466" d="M276.66,58.25c0.3,0.6,0.48,1.27,0.48,1.99v8.74l-5.37,1.24v2.57l7.45-1.73v-8.74
		C279.22,60.53,278.15,59,276.66,58.25z"/>
	<path fill="#636466" d="M276.66,76.05c0.3,0.6,0.48,1.27,0.48,1.99v16.2c0,2.46-2.09,4.56-4.56,4.56h-11.08
		c-0.72,0-1.38-0.18-1.99-0.48c0.74,1.5,2.27,2.56,4.07,2.56h11.08c2.46,0,4.56-2.09,4.56-4.56v-16.2
		C279.22,78.33,278.15,76.8,276.66,76.05z"/>
	<polygon fill="#636466" points="264.33,63.07 264.33,73.48 266.41,73.48 266.41,65.16 269.69,65.16 269.69,63.07 	"/>
</g>
<g>
	<polygon fill="#636466" points="298.02,80.87 297.34,80.87 297.34,98.79 292.03,98.79 292.03,100.88 299.42,100.88 299.42,85.35 	
		"/>
	<polygon fill="#636466" points="313.16,57.77 310.4,57.77 304.17,77.18 311.07,98.79 305.07,98.79 305.64,100.63 305.7,100.88 
		313.16,100.88 306.26,79.26 	"/>
</g>
<polygon fill="#636466" points="330.53,57.77 330.53,98.79 325.23,98.79 325.23,100.88 332.62,100.88 332.62,57.77 "/>
<rect x="361.52" y="79.65" transform="matrix(0.707 -0.7072 0.7072 0.707 49.7266 282.278)" fill="#636466" width="8.08" height="2.95"/>
<rect x="9.53" y="79.66" transform="matrix(0.7071 -0.7071 0.7071 0.7071 -53.3963 33.3633)" fill="#636466" width="8.08" height="2.95"/>
<g>
	<path fill="#FFFFFF" d="M55.65,68.97c0,1.42-0.62,2.65-1.66,3.51c0.92,0.98,1.66,2.09,1.66,3.69v14.1c0,2.46-2.09,4.56-4.56,4.56
		H35.45V51.72h15.64c2.46,0,4.56,2.03,4.56,4.56L55.65,68.97L55.65,68.97z M48.2,59.11h-5.36v10.41h5.36V59.11z M48.2,76.91h-5.36
		v10.47h5.36V76.91z"/>
	<path fill="#FFFFFF" d="M84.1,51.72c2.46,0,4.56,2.03,4.56,4.56v33.99c0,2.46-2.09,4.56-4.56,4.56H73.02
		c-2.53,0-4.56-2.09-4.56-4.56V56.28c0-2.53,2.03-4.56,4.56-4.56H84.1z M81.21,59.11h-5.36v28.27h5.36V59.11z"/>
	<path fill="#FFFFFF" d="M114.71,94.83l-3.02-17.92h-2.83v17.92h-7.39V51.72h15.64c2.46,0,4.5,2.03,4.5,4.56v16.13
		c0,1.73-0.99,3.33-2.59,4.06l3.08,18.35H114.71z M114.22,59.11h-5.36v10.41h5.36V59.11z"/>
	<path fill="#FFFFFF" d="M149.14,51.72c2.46,0,4.56,2.03,4.56,4.56v33.99c0,2.46-2.09,4.56-4.56,4.56h-11.09
		c-2.52,0-4.56-2.09-4.56-4.56V56.28c0-2.53,2.03-4.56,4.56-4.56H149.14z M146.25,59.11h-5.36v28.27h5.36V59.11z"/>
	<path fill="#FFFFFF" d="M182.15,51.72c2.46,0,4.56,2.03,4.56,4.56v33.99c0,2.46-2.09,4.56-4.56,4.56h-15.64V51.72H182.15z
		 M179.26,59.11h-5.36v28.27h5.36V59.11z"/>
	<path fill="#FFFFFF" d="M199.89,51.72h7.39v43.11h-7.39V51.72z"/>
	<path fill="#FFFFFF" d="M240.17,51.72v43.11h-7.39l-5.42-18.84v18.84h-7.39V51.72h7.33l5.42,17.67V51.72H240.17z"/>
	<path fill="#FFFFFF" d="M268.62,69.52c2.46,0,4.56,2.03,4.56,4.56v16.2c0,2.46-2.09,4.56-4.56,4.56h-11.08
		c-2.52,0-4.56-2.09-4.56-4.56v-8.87l7.39-1.73v7.7h5.36V76.91h-8.19c-2.52,0-4.56-2.03-4.56-4.56V56.28c0-2.53,2.03-4.56,4.56-4.56
		h11.08c2.46,0,4.56,2.03,4.56,4.56v8.74l-7.45,1.73v-7.64h-5.36v10.41H268.62z"/>
	<path fill="#FFFFFF" d="M300.22,73.22l6.9,21.62h-7.45l-0.06-0.25l-5.54-17.67h-0.68v17.92h-7.39V51.72h7.39v17.8h0.56l5.67-17.8
		h7.51L300.22,73.22z"/>
	<path fill="#FFFFFF" d="M319.19,51.72h7.39v43.11h-7.39V51.72z"/>
</g>
</svg>
