<?xml version="1.0" encoding="utf-8"?>
<!-- Generator: Adobe Illustrator 23.0.2, SVG Export Plug-In . SVG Version: 6.00 Build 0)  -->
<svg version="1.1" id="Layer_1" xmlns="http://www.w3.org/2000/svg" xmlns:xlink="http://www.w3.org/1999/xlink" x="0px" y="0px"
	 viewBox="0 0 225.81 30.04" enable-background="new 0 0 225.81 30.04" xml:space="preserve">
<g>
	
		<rect x="1.02" y="10.7" transform="matrix(0.7072 -0.7071 0.7071 0.7072 -8.2908 6.3276)" fill="#FFFFFF" width="4.94" height="4.94"/>
	
		<rect x="216.15" y="10.71" transform="matrix(0.7071 -0.7071 0.7071 0.7071 54.7086 158.446)" fill="#FFFFFF" width="4.94" height="4.94"/>
	<g>
		<polygon fill="#636466" points="28.6,13.3 29.88,13.3 29.88,8.21 31.88,8.21 31.88,6.94 28.6,6.94 		"/>
		<path fill="#636466" d="M37.71,14.23V6.48c0-1.1-0.65-2.03-1.57-2.49c0.18,0.37,0.29,0.78,0.29,1.21v7.75
			c0,0.86-0.38,1.62-1.02,2.15c0.56,0.6,1.02,1.28,1.02,2.26v8.62c0,1.5-1.28,2.79-2.79,2.79h-8.29v1.27h9.56
			c1.5,0,2.79-1.28,2.79-2.79v-8.62c0-0.98-0.45-1.66-1.02-2.26C37.33,15.85,37.71,15.1,37.71,14.23z"/>
		<polygon fill="#636466" points="28.6,24.21 29.88,24.21 29.88,19.09 31.88,19.09 31.88,17.81 28.6,17.81 		"/>
	</g>
	<g>
		<polygon fill="#636466" points="48.78,24.21 50.05,24.21 50.05,8.21 52.05,8.21 52.05,6.94 48.78,6.94 		"/>
		<path fill="#636466" d="M56.31,3.99c0.18,0.37,0.29,0.78,0.29,1.21v20.78c0,1.5-1.28,2.79-2.79,2.79h-6.77
			c-0.44,0-0.85-0.11-1.21-0.29c0.46,0.92,1.39,1.57,2.49,1.57h6.78c1.5,0,2.79-1.28,2.79-2.79V6.48
			C57.88,5.38,57.23,4.45,56.31,3.99z"/>
	</g>
	<g>
		<polygon fill="#636466" points="68.95,13.3 70.23,13.3 70.23,8.21 72.23,8.21 72.23,6.94 68.95,6.94 		"/>
		<path fill="#636466" d="M76.44,18.82c0.98-0.45,1.58-1.43,1.58-2.48V6.48c0-1.11-0.65-2.06-1.57-2.5
			c0.18,0.37,0.29,0.79,0.29,1.23v9.86c0,1.05-0.6,2.03-1.58,2.48l1.88,11.22h-3.46l0.21,1.27h4.52L76.44,18.82z"/>
		<polygon fill="#636466" points="70.68,17.81 68.95,17.81 68.95,28.77 65.71,28.77 65.71,30.04 70.23,30.04 70.23,19.09 
			70.9,19.09 		"/>
	</g>
	<g>
		<polygon fill="#636466" points="88.53,24.21 89.8,24.21 89.8,8.21 91.8,8.21 91.8,6.94 88.53,6.94 		"/>
		<path fill="#636466" d="M96.06,3.99c0.18,0.37,0.29,0.78,0.29,1.21v20.78c0,1.5-1.28,2.79-2.79,2.79H86.8
			c-0.44,0-0.85-0.11-1.21-0.29c0.45,0.92,1.39,1.57,2.49,1.57h6.78c1.5,0,2.79-1.28,2.79-2.79V6.48
			C97.63,5.38,96.98,4.45,96.06,3.99z"/>
	</g>
	<g>
		<polygon fill="#636466" points="108.7,24.21 109.98,24.21 109.98,8.21 111.98,8.21 111.98,6.94 108.7,6.94 		"/>
		<path fill="#636466" d="M116.24,3.99c0.18,0.37,0.29,0.78,0.29,1.21v20.78c0,1.5-1.28,2.79-2.79,2.79h-8.29v1.27h9.56
			c1.5,0,2.78-1.28,2.78-2.79V6.48C117.8,5.38,117.15,4.45,116.24,3.99z"/>
	</g>
	<polygon fill="#636466" points="129.1,3.69 129.1,28.77 125.86,28.77 125.86,30.04 130.38,30.04 130.38,3.69 	"/>
	<g>
		<polygon fill="#636466" points="149.21,3.69 149.21,28.77 145.59,28.77 145.96,30.04 150.48,30.04 150.48,3.69 		"/>
		<polygon fill="#636466" points="141.38,17.25 141.38,28.77 138.13,28.77 138.13,30.04 142.65,30.04 142.65,21.68 		"/>
	</g>
	<g>
		<path fill="#636466" d="M161.09,19.09h3.73v-1.27h-5.01c-0.44,0-0.85-0.11-1.22-0.29C159.05,18.45,159.99,19.09,161.09,19.09z"/>
		<polygon fill="#636466" points="162.82,20.78 161.55,21.08 161.55,24.21 162.82,24.21 		"/>
		<path fill="#636466" d="M169.09,3.99c0.18,0.37,0.29,0.78,0.29,1.21v5.34l-3.28,0.76v1.57l4.55-1.05V6.48
			C170.65,5.38,170,4.45,169.09,3.99z"/>
		<path fill="#636466" d="M169.09,14.87c0.18,0.37,0.29,0.78,0.29,1.21v9.9c0,1.5-1.28,2.79-2.79,2.79h-6.77
			c-0.44,0-0.85-0.11-1.21-0.29c0.45,0.92,1.39,1.57,2.49,1.57h6.77c1.51,0,2.78-1.28,2.78-2.79v-9.9
			C170.65,16.26,170,15.32,169.09,14.87z"/>
		<polygon fill="#636466" points="161.55,6.94 161.55,13.3 162.82,13.3 162.82,8.21 164.83,8.21 164.83,6.94 		"/>
	</g>
	<g>
		<polygon fill="#636466" points="182.14,17.81 181.73,17.81 181.73,28.77 178.48,28.77 178.48,30.04 183,30.04 183,20.55 		"/>
		<polygon fill="#636466" points="191.39,3.69 189.71,3.69 185.9,15.56 190.12,28.77 186.45,28.77 186.8,29.89 186.84,30.04 
			191.39,30.04 187.18,16.83 		"/>
	</g>
	<polygon fill="#636466" points="202.02,3.69 202.02,28.77 198.77,28.77 198.77,30.04 203.29,30.04 203.29,3.69 	"/>
	
		<rect x="220.96" y="17.08" transform="matrix(0.707 -0.7072 0.7072 0.707 52.7518 163.2809)" fill="#636466" width="4.94" height="1.8"/>
	
		<rect x="5.83" y="17.08" transform="matrix(0.7071 -0.7071 0.7071 0.7071 -10.2805 11.1326)" fill="#636466" width="4.94" height="1.8"/>
	<g>
		<path fill="#FFFFFF" d="M34.01,10.54c0,0.87-0.38,1.62-1.02,2.15c0.56,0.6,1.02,1.28,1.02,2.26v8.62c0,1.51-1.28,2.79-2.79,2.79
			h-9.56V0h9.56c1.5,0,2.79,1.24,2.79,2.79V10.54z M29.46,4.52h-3.28v6.36h3.28V4.52z M29.46,15.4h-3.28v6.4h3.28V15.4z"/>
		<path fill="#FFFFFF" d="M51.4,0c1.51,0,2.79,1.24,2.79,2.79v20.78c0,1.51-1.28,2.79-2.79,2.79h-6.77c-1.54,0-2.79-1.28-2.79-2.79
			V2.79c0-1.54,1.24-2.79,2.79-2.79H51.4z M49.63,4.52h-3.28v17.28h3.28V4.52z"/>
		<path fill="#FFFFFF" d="M70.11,26.35L68.26,15.4h-1.73v10.95h-4.52V0h9.56c1.5,0,2.75,1.24,2.75,2.79v9.86
			c0,1.05-0.6,2.03-1.58,2.48l1.88,11.22H70.11z M69.81,4.52h-3.27v6.36h3.27V4.52z"/>
		<path fill="#FFFFFF" d="M91.15,0c1.51,0,2.78,1.24,2.78,2.79v20.78c0,1.51-1.28,2.79-2.78,2.79h-6.77c-1.54,0-2.79-1.28-2.79-2.79
			V2.79c0-1.54,1.24-2.79,2.79-2.79H91.15z M89.38,4.52h-3.28v17.28h3.28V4.52z"/>
		<path fill="#FFFFFF" d="M111.33,0c1.5,0,2.78,1.24,2.78,2.79v20.78c0,1.51-1.28,2.79-2.78,2.79h-9.56V0H111.33z M109.56,4.52
			h-3.27v17.28h3.27V4.52z"/>
		<path fill="#FFFFFF" d="M122.17,0h4.52v26.35h-4.52V0z"/>
		<path fill="#FFFFFF" d="M146.78,0v26.35h-4.52l-3.31-11.52v11.52h-4.52V0h4.48l3.31,10.8V0H146.78z"/>
		<path fill="#FFFFFF" d="M164.18,10.88c1.5,0,2.79,1.24,2.79,2.79v9.9c0,1.51-1.28,2.79-2.79,2.79h-6.78
			c-1.54,0-2.78-1.28-2.78-2.79v-5.42l4.52-1.05v4.71h3.27v-6.4h-5.01c-1.54,0-2.78-1.24-2.78-2.79V2.79c0-1.54,1.24-2.79,2.78-2.79
			h6.78c1.5,0,2.79,1.24,2.79,2.79v5.34l-4.56,1.05V4.52h-3.27v6.36H164.18z"/>
		<path fill="#FFFFFF" d="M183.48,13.14l4.22,13.21h-4.55l-0.04-0.15l-3.39-10.8h-0.42v10.95h-4.52V0h4.52v10.88h0.34L183.11,0h4.59
			L183.48,13.14z"/>
		<path fill="#FFFFFF" d="M195.08,0h4.52v26.35h-4.52V0z"/>
	</g>
</g>
</svg>
